# xmcd
#
# Track frame offsets:
#	150
#	10873
#	20494
#	33734
#	44875
#	58701
#	74666
#	88070
#	101151
#	111933
#	122421
#	134511
#	148094
#	157867
#	170222
#	184357
#	200489
#	211825
#	224201
#	236909
#	249086
#	259160
#	268648
#	279890
#
# Disc length: 3894 seconds
#
# Revision: 1
# Processed by: cddbd v1.5.2PL0 Copyright (c) Steve Scherf et al.
# Submitted via: audiograbber 1.83.01
#
DISCID=7e0f3418
DTITLE=Various Artist - For Connoisseurs Only, Vol. 3
DYEAR=2007
DGENRE=Soul
TTITLE0=Billy Watkins - Beverly
TTITLE1=Marvin Phillips and The Spinners - That Righteous Feeling
TTITLE2=Terry and The Tyrants - Love Me To Death
TTITLE3=Johnny Copeland - You Must Believe In Yourself
TTITLE4=Freeman King - Working For The Woman I Love
TTITLE5=Jeb Stuart - Can't Count The Days
TTITLE6=Jackie Day - If I'd Lose You
TTITLE7=Al King - My Name Is Misery
TTITLE8=Tommy Youngblood - Back In The Saddle
TTITLE9=Willie Headen - I Want To Know
TTITLE10=Vernon Garrett - I'm Guilty
TTITLE11=The Ikettes - Don't Feel Sorry For Me
TTITLE12=Felice Taylor - Good Luck (New Love)
TTITLE13=Mary Love - I've Gotta Get You Back
TTITLE14=The Windjammers - Poor Sad Child
TTITLE15=The Four Tees - I Could Never Love Another
TTITLE16=Bobby White - It's A Great Life
TTITLE17=Leon Peterson - Baby, Baby, Baby
TTITLE18=Gene Taylor - Cut Me Loose
TTITLE19=Frank Armstrong and The Stingers - Feel Like I Want To Holler
TTITLE20=Esther Williams - It's OK
TTITLE21=Little Henry and The Shamrocks - The Ta Ta Song
TTITLE22=Jimmy McCracklin - This Life Of Mine
TTITLE23=Willie Gauff and The Love Brothers - Whenever I Can't Sleep
EXTD=
EXTT0=
EXTT1=
EXTT2=
EXTT3=
EXTT4=
EXTT5=
EXTT6=
EXTT7=
EXTT8=
EXTT9=
EXTT10=
EXTT11=
EXTT12=
EXTT13=
EXTT14=
EXTT15=
EXTT16=
EXTT17=
EXTT18=
EXTT19=
EXTT20=
EXTT21=
EXTT22=
EXTT23=
PLAYORDER=
